<?xml version="1.0" encoding="UTF-8" standalone="no" ?>
<!DOCTYPE svg PUBLIC "-//W3C//DTD SVG 1.1//EN" "http://www.w3.org/Graphics/SVG/1.1/DTD/svg11.dtd">
<svg xmlns="http://www.w3.org/2000/svg" xmlns:xlink="http://www.w3.org/1999/xlink" version="1.1" width="1080" height="1080" viewBox="0 0 1080 1080" xml:space="preserve">
<desc>Created with Fabric.js 5.2.4</desc>
<defs>
</defs>
<g transform="matrix(1 0 0 1 540 540)" id="d91f8f81-7111-45a6-bc8d-dc6f5b197b42"  >
<rect style="stroke: none; stroke-width: 1; stroke-dasharray: none; stroke-linecap: butt; stroke-dashoffset: 0; stroke-linejoin: miter; stroke-miterlimit: 4; fill: rgb(255,255,255); fill-rule: nonzero; opacity: 1; visibility: hidden;" vector-effect="non-scaling-stroke"  x="-540" y="-540" rx="0" ry="0" width="1080" height="1080" />
</g>
<g transform="matrix(1 0 0 1 540 540)" id="083bfb5e-a647-4fff-9fbe-03f8c54b9881"  >
</g>
<g transform="matrix(1 0 0 1 540 540)"  >
<g style="" vector-effect="non-scaling-stroke"   >
		<g transform="matrix(1 0 0 1 -490 -490)"  >
<rect style="stroke: none; stroke-width: 1; stroke-dasharray: none; stroke-linecap: butt; stroke-dashoffset: 0; stroke-linejoin: miter; stroke-miterlimit: 4; fill: rgb(255,255,255); fill-opacity: 0; fill-rule: nonzero; opacity: 1;" vector-effect="non-scaling-stroke"  x="-50" y="-50" rx="0" ry="0" width="100" height="100" />
</g>
		<g transform="matrix(1 0 0 1 0 0)"  >
<rect style="stroke: none; stroke-width: 1; stroke-dasharray: none; stroke-linecap: butt; stroke-dashoffset: 0; stroke-linejoin: miter; stroke-miterlimit: 4; fill: rgb(250,250,249); fill-rule: nonzero; opacity: 1;" vector-effect="non-scaling-stroke"  x="-540" y="-540" rx="100" ry="100" width="1080" height="1080" />
</g>
		<g transform="matrix(1 0 0 1 -490 -490)"  >
<rect style="stroke: none; stroke-width: 1; stroke-dasharray: none; stroke-linecap: butt; stroke-dashoffset: 0; stroke-linejoin: miter; stroke-miterlimit: 4; fill: rgb(255,255,255); fill-opacity: 0; fill-rule: nonzero; opacity: 1;" vector-effect="non-scaling-stroke"  x="-50" y="-50" rx="0" ry="0" width="100" height="100" />
</g>
		<g transform="matrix(1 0 0 1 0 0)"  >
<rect style="stroke: none; stroke-width: 1; stroke-dasharray: none; stroke-linecap: butt; stroke-dashoffset: 0; stroke-linejoin: miter; stroke-miterlimit: 4; fill: rgb(255,255,255); fill-rule: nonzero; opacity: 1; visibility: hidden;" vector-effect="non-scaling-stroke"  x="-540" y="-540" rx="0" ry="0" width="1080" height="1080" />
</g>
		<g transform="matrix(1.92 0 0 1.92 -17.12 0)"  >
<path style="stroke: rgb(0,0,0); stroke-width: 0; stroke-dasharray: none; stroke-linecap: butt; stroke-dashoffset: 0; stroke-linejoin: miter; stroke-miterlimit: 4; fill: rgb(195,27,170); fill-rule: nonzero; opacity: 1;" vector-effect="non-scaling-stroke"  transform=" translate(-256, -250.17)" d="M 127.97 264.15 C 91.67 251.01 71.44999999999999 230.37999999999997 66.17 202.80999999999997 L 295.33 264.42999999999995 C 304.28 265.56999999999994 312.02 268.50999999999993 318.09999999999997 273.9599999999999 C 323.78 279.05999999999995 324.2 282.5799999999999 328.02 288.12999999999994 C 331.21999999999997 292.78999999999996 335.64 296.37999999999994 342.40999999999997 297.8999999999999 L 349.71 298.2399999999999 C 356.27 298.5599999999999 363.07 299.9699999999999 367.7 293.9999999999999 C 370.78999999999996 289.9999999999999 370.76 284.02999999999986 368.53 276.6699999999999 C 368.2 269.6999999999999 369.23999999999995 263.0099999999999 371.7 256.5999999999999 C 374.09 250.4099999999999 377.82 244.4799999999999 382.95 238.83999999999992 C 400.71 222.8199999999999 423.2 216.10999999999993 453.15999999999997 224.14999999999992 C 488.10999999999996 232.49999999999991 504.88 252.30999999999992 511.4 278.56999999999994 C 513.77 296.12999999999994 508.98999999999995 309.7199999999999 498.56 320.17999999999995 C 482.65 336.10999999999996 462.08 341.40999999999997 440.16 339.5199999999999 C 426.28000000000003 338.3299999999999 411.95000000000005 334.5499999999999 396.29 330.00999999999993 L 340.5 323.19999999999993 L 341.86 320.75999999999993 L 127.97000000000003 264.1499999999999 z M 138.13 382.53999999999996 C 140.38 384.78999999999996 140.34 388.47999999999996 138.04 390.77 C 135.75 393.07 132.06 393.09999999999997 129.82 390.85999999999996 L 58.77999999999999 319.81999999999994 L 48.829999999999984 329.7699999999999 L 121.11999999999999 402.05999999999995 C 123.58999999999999 406.10999999999996 118.89999999999999 409.80999999999995 115.86999999999999 409.05999999999995 C 69.76999999999998 390.79999999999995 16.50999999999999 352.53 2.9299999999999926 309.15 C -2.3100000000000076 292.41999999999996 -0.9200000000000075 293.72999999999996 10.339999999999993 282.46 L 54.08999999999999 238.70999999999998 C 57.95999999999999 244.95 62.61999999999999 250.82 68.10999999999999 256.31 C 79.57 267.76 94.49999999999999 277.26 113.02999999999999 284.74 L 174.48 346.19 C 176.73999999999998 348.45 176.7 352.14 174.39999999999998 354.45 C 172.08999999999997 356.75 168.39 356.78999999999996 166.14 354.53 L 95.1 283.5 L 85.28 293.32 L 156.31 364.36 C 158.57 366.61 158.53 370.31 156.23 372.62 C 153.92 374.92 150.23 374.96 147.97 372.7 L 76.92999999999999 301.66999999999996 L 67.08999999999999 311.50999999999993 L 138.13 382.53999999999996 z M 105.02 187.77999999999997 L 199.44 93.35999999999997 L 217.62 160.97999999999996 L 212.47 166.12999999999997 L 221.41 175.06999999999996 L 227.54999999999998 197.89999999999998 L 204.13 174.47999999999996 L 194.29999999999998 184.29999999999995 L 231.89 221.88999999999996 L 209.06 215.74999999999997 L 185.95 192.64999999999998 L 176.13 202.46999999999997 L 182.18 208.52999999999997 L 105.02000000000001 187.77999999999997 z M 250.37 42.43 L 282.46000000000004 10.339999999999996 C 293.73 -0.9200000000000035 292.42 -2.310000000000004 309.15000000000003 2.929999999999996 C 352.53000000000003 16.509999999999998 390.80000000000007 69.77 409.05000000000007 115.86999999999999 C 409.81000000000006 118.89999999999999 406.11000000000007 123.58999999999999 402.06000000000006 121.11999999999999 L 329.77000000000004 48.829999999999984 L 321.47 57.12999999999998 L 392.51000000000005 128.15999999999997 C 394.76000000000005 130.40999999999997 394.72 134.09999999999997 392.43000000000006 136.38999999999996 C 390.13000000000005 138.67999999999995 386.44000000000005 138.71999999999997 384.20000000000005 136.46999999999997 L 313.16 65.43999999999997 L 303.3 75.29999999999997 L 374.34000000000003 146.32999999999998 C 376.58000000000004 148.57999999999998 376.55 152.26999999999998 374.25000000000006 154.55999999999997 C 371.96000000000004 156.84999999999997 368.27000000000004 156.89 366.02000000000004 154.64 L 294.99 83.60999999999999 L 290.43 88.16999999999999 C 284.06 75.6 276.57 65.03999999999999 267.97 56.44999999999999 C 262.49 50.95999999999999 256.62 46.28999999999999 250.37000000000003 42.42999999999999 z M 298.5 106.80000000000001 L 356.18 164.48000000000002 C 358.44 166.74 358.40000000000003 170.44000000000003 356.1 172.74 C 353.8 175.05 350.1 175.09 347.84000000000003 172.83 L 304.81000000000006 129.8 L 299.59000000000003 110.05000000000001 C 299.32000000000005 109.02000000000001 298.98 108.02000000000001 298.59000000000003 107.06000000000002 L 298.50000000000006 106.80000000000001 z M 311.9 156.58 L 338 182.67000000000002 C 340.24 184.92000000000002 340.21 188.61 337.91 190.9 C 335.62 193.19 331.93 193.23000000000002 329.68 190.98000000000002 L 317.88 179.18 L 311.9 156.58 z M 212.08999999999997 311.84000000000003 C 212.87999999999997 313.92 212.42 316.39000000000004 210.71999999999997 318.09000000000003 C 208.42999999999998 320.39000000000004 204.73999999999998 320.42 202.48999999999998 318.18 L 190.42 306.11 L 212.08999999999997 311.84000000000003 z M 163.61999999999998 299.01000000000005 L 192.64 328.03000000000003 C 194.89 330.28000000000003 194.85 333.97 192.54999999999998 336.26000000000005 C 190.26 338.55000000000007 186.57 338.59000000000003 184.32 336.34000000000003 L 141.01 293.03000000000003 L 163.62 299.01000000000005 z M 275.82 116.30000000000004 C 262.67 80.00000000000004 242.04 59.79000000000004 214.47 54.50000000000004 L 265.4 243.89000000000004 L 313.09999999999997 257.20000000000005 L 275.81999999999994 116.30000000000004 z M 306.45 323.1 C 307.83 325.26000000000005 308.89 327.77000000000004 309.56 330.74 L 309.91 338.05 C 310.22 344.6 311.63000000000005 351.40000000000003 305.66 356.03000000000003 C 301.66 359.13000000000005 295.69 359.09000000000003 288.33000000000004 356.86 C 281.37000000000006 356.54 274.67 357.57 268.27000000000004 360.04 C 262.07000000000005 362.43 256.15000000000003 366.15000000000003 250.51000000000005 371.29 C 234.49000000000004 389.05 227.78000000000006 411.53000000000003 235.81000000000006 441.5 C 244.17000000000007 476.45 263.9800000000001 493.22 290.24000000000007 499.74 C 307.80000000000007 502.11 321.39000000000004 497.33 331.8400000000001 486.90000000000003 C 347.7800000000001 470.99 353.0700000000001 450.42 351.1900000000001 428.50000000000006 C 349.9900000000001 414.61000000000007 346.2100000000001 400.2800000000001 341.67000000000013 384.62000000000006 L 335.0700000000001 330.46000000000004 L 332.9400000000001 329.91 L 332.42000000000013 330.20000000000005 L 332.3000000000001 329.75000000000006 L 306.4500000000001 323.1000000000001 z M 291.45 380.29 C 277.02 377.27000000000004 266.5 385.96000000000004 260.55 398.37 C 255.77 408.32 254.95000000000002 420.18 257.86 433.83 C 260.31 445.34 268.07 460.09 278.73 468.95 C 299.36 486.09999999999997 319.76 472.86 326.19 449.91999999999996 C 329.05 439.71999999999997 328.8 429.08 325.18 417.96999999999997 C 322.74 410.44 318.96 402.39 313.79 395.61999999999995 C 308.06 388.13999999999993 300.65000000000003 382.21999999999997 291.45000000000005 380.28999999999996 z M 292.46999999999997 279.83000000000004 C 296.89 275.41 304.04999999999995 275.41 308.46999999999997 279.83000000000004 C 312.89 284.25000000000006 312.89 291.42 308.46999999999997 295.83000000000004 C 304.04999999999995 300.25000000000006 296.89 300.25000000000006 292.46999999999997 295.83000000000004 C 288.04999999999995 291.42 288.04999999999995 284.25000000000006 292.46999999999997 279.83000000000004 z M 391.96 279.79 C 388.94 265.36 397.63 254.83 410.03 248.88000000000002 C 419.97999999999996 244.11 431.84 243.28000000000003 445.48999999999995 246.19000000000003 C 456.99999999999994 248.65000000000003 471.74999999999994 256.40000000000003 480.60999999999996 267.06 C 497.77 287.69 484.52 308.09000000000003 461.5799999999999 314.52 C 451.38999999999993 317.38 440.74999999999994 317.13 429.62999999999994 313.52 C 422.10999999999996 311.07 414.05999999999995 307.28999999999996 407.28999999999996 302.12 C 399.79999999999995 296.4 393.87999999999994 288.98 391.96 279.79 z" stroke-linecap="round" />
</g>
		<g transform="matrix(2.22 0 0 2.22 334.05 57.32)"  >
<circle style="stroke: rgb(0,0,0); stroke-width: 0; stroke-dasharray: none; stroke-linecap: butt; stroke-dashoffset: 0; stroke-linejoin: miter; stroke-miterlimit: 4; fill: rgb(212,196,196); fill-rule: nonzero; opacity: 1;" vector-effect="non-scaling-stroke"  cx="0" cy="0" r="35" />
</g>
		<g transform="matrix(2.22 0 0 2.22 53.47 339.45)"  >
<circle style="stroke: rgb(0,0,0); stroke-width: 0; stroke-dasharray: none; stroke-linecap: butt; stroke-dashoffset: 0; stroke-linejoin: miter; stroke-miterlimit: 4; fill: rgb(212,196,196); fill-rule: nonzero; opacity: 1;" vector-effect="non-scaling-stroke"  cx="0" cy="0" r="35" />
</g>
</g>
</g>
<g transform="matrix(2.62 0 0 2.62 594.36 880.32)" id="db2edce4-b7fc-4dbb-a98f-bfd202250511"  >
<circle style="stroke: rgb(0,0,0); stroke-width: 0; stroke-dasharray: none; stroke-linecap: butt; stroke-dashoffset: 0; stroke-linejoin: miter; stroke-miterlimit: 4; fill: rgb(255,255,255); fill-rule: nonzero; opacity: 1;" vector-effect="non-scaling-stroke"  cx="0" cy="0" r="35" />
</g>
<g transform="matrix(2.62 0 0 2.62 874.21 599.78)" id="db2edce4-b7fc-4dbb-a98f-bfd202250511"  >
<circle style="stroke: rgb(0,0,0); stroke-width: 0; stroke-dasharray: none; stroke-linecap: butt; stroke-dashoffset: 0; stroke-linejoin: miter; stroke-miterlimit: 4; fill: rgb(255,255,255); fill-rule: nonzero; opacity: 1;" vector-effect="non-scaling-stroke"  cx="0" cy="0" r="35" />
</g>
</svg>